<svg xmlns="http://www.w3.org/2000/svg" xmlns:xlink="http://www.w3.org/1999/xlink" viewBox="0,0,256,256" width="48px" height="48px" fill-rule="nonzero"><defs><linearGradient x1="31.103" y1="-1.053" x2="5.747" y2="24.303" gradientUnits="userSpaceOnUse" id="color-1"><stop offset="0" stop-color="#ffffff" stop-opacity="0"></stop><stop offset="1" stop-color="#c1c0be"></stop></linearGradient><linearGradient x1="34.316" y1="9.734" x2="9.873" y2="34.177" gradientUnits="userSpaceOnUse" id="color-2"><stop offset="0" stop-color="#ffffff" stop-opacity="0"></stop><stop offset="1" stop-color="#c1c0be"></stop></linearGradient><linearGradient x1="30.078" y1="25.922" x2="4.722" y2="51.278" gradientUnits="userSpaceOnUse" id="color-3"><stop offset="0" stop-color="#ffffff" stop-opacity="0"></stop><stop offset="1" stop-color="#c1c0be"></stop></linearGradient><linearGradient x1="44.215" y1="-4.266" x2="19.773" y2="20.177" gradientUnits="userSpaceOnUse" id="color-4"><stop offset="0" stop-color="#ffffff" stop-opacity="0"></stop><stop offset="1" stop-color="#c1c0be"></stop></linearGradient><linearGradient x1="41.157" y1="14.843" x2="20.151" y2="35.849" gradientUnits="userSpaceOnUse" id="color-5"><stop offset="0" stop-color="#ffffff" stop-opacity="0"></stop><stop offset="1" stop-color="#c1c0be"></stop></linearGradient></defs><g fill="none" fill-rule="nonzero" stroke="none" stroke-width="1" stroke-linecap="butt" stroke-linejoin="miter" stroke-miterlimit="10" stroke-dasharray="" stroke-dashoffset="0" font-family="none" font-weight="none" font-size="none" text-anchor="none" style="mix-blend-mode: normal"><g transform="scale(5.33333,5.33333)"><path d="M25,17h-7c-3.866,0 -7,-3.134 -7,-7v0c0,-3.866 3.134,-7 7,-7h7z" fill="url(#color-1)"></path><path d="M25,31h-7c-3.866,0 -7,-3.134 -7,-7v0c0,-3.866 3.134,-7 7,-7h7z" fill="url(#color-2)"></path><path d="M18,45v0c-3.866,0 -7,-3.134 -7,-7v0c0,-3.866 3.134,-7 7,-7h7v7c0,3.866 -3.134,7 -7,7z" fill="url(#color-3)"></path><path d="M32,17h-7v-14h7c3.866,0 7,3.134 7,7v0c0,3.866 -3.134,7 -7,7z" fill="url(#color-4)"></path><circle cx="32" cy="24" r="7" fill="url(#color-5)"></circle></g></g></svg>