<svg xmlns="http://www.w3.org/2000/svg" xmlns:xlink="http://www.w3.org/1999/xlink" viewBox="0,0,256,256" width="48px" height="48px" fill-rule="nonzero"><defs><linearGradient x1="24" y1="-9.77" x2="24" y2="12.84" gradientUnits="userSpaceOnUse" id="color-1"><stop offset="0" stop-color="#fffefb"></stop><stop offset="1" stop-color="#c1c0be"></stop></linearGradient><linearGradient x1="24" y1="58.77" x2="24" y2="36.16" gradientUnits="userSpaceOnUse" id="color-2"><stop offset="0" stop-color="#fffefb"></stop><stop offset="1" stop-color="#c1c0be"></stop></linearGradient><linearGradient x1="-2.298" y1="44.298" x2="13.69" y2="28.31" gradientUnits="userSpaceOnUse" id="color-3"><stop offset="0" stop-color="#fffefb"></stop><stop offset="1" stop-color="#c1c0be"></stop></linearGradient><linearGradient x1="51.298" y1="44.298" x2="35.31" y2="28.31" gradientUnits="userSpaceOnUse" id="color-4"><stop offset="0" stop-color="#fffefb"></stop><stop offset="1" stop-color="#c1c0be"></stop></linearGradient><linearGradient x1="-2.298" y1="4.702" x2="13.69" y2="20.69" gradientUnits="userSpaceOnUse" id="color-5"><stop offset="0" stop-color="#fffefb"></stop><stop offset="1" stop-color="#c1c0be"></stop></linearGradient><linearGradient x1="51.298" y1="4.702" x2="35.31" y2="20.69" gradientUnits="userSpaceOnUse" id="color-6"><stop offset="0" stop-color="#fffefb"></stop><stop offset="1" stop-color="#c1c0be"></stop></linearGradient><linearGradient x1="10.466" y1="-14.058" x2="39.78" y2="66.483" gradientUnits="userSpaceOnUse" id="color-7"><stop offset="0" stop-color="#fffefb"></stop><stop offset="1" stop-color="#c1c0be"></stop></linearGradient><linearGradient x1="17.36" y1="18.227" x2="32.9" y2="60.922" gradientUnits="userSpaceOnUse" id="color-8"><stop offset="0" stop-color="#fffefb"></stop><stop offset="1" stop-color="#c1c0be"></stop></linearGradient></defs><g fill="none" fill-rule="nonzero" stroke="none" stroke-width="1" stroke-linecap="butt" stroke-linejoin="miter" stroke-miterlimit="10" stroke-dasharray="" stroke-dashoffset="0" font-family="none" font-weight="none" font-size="none" text-anchor="none" style="mix-blend-mode: normal"><g transform="scale(5.33333,5.33333)"><circle cx="24" cy="5.5" r="4.5" fill="url(#color-1)"></circle><circle cx="24" cy="43.5" r="4.5" fill="url(#color-2)"></circle><circle cx="8.5" cy="33.5" r="4.5" fill="url(#color-3)"></circle><circle cx="40.5" cy="33.5" r="4.5" fill="url(#color-4)"></circle><circle cx="8.5" cy="15.5" r="4.5" fill="url(#color-5)"></circle><circle cx="40.5" cy="15.5" r="4.5" fill="url(#color-6)"></circle><path d="M40.5,20c-0.529,0 -1.029,-0.108 -1.5,-0.276v8.665l-11.14,-18.798l8.273,4.866c0.334,-1.401 1.312,-2.552 2.614,-3.104l-10.266,-6.037c0.003,0.062 0.019,0.121 0.019,0.184c0,2.485 -2.015,4.5 -4.5,4.5c-2.485,0 -4.5,-2.015 -4.5,-4.5c0,-0.017 0.005,-0.032 0.005,-0.049l-9.381,5.863c1.325,0.515 2.334,1.636 2.706,3.026l7.361,-4.6l-10.191,18.342v-8.358c-0.471,0.168 -0.971,0.276 -1.5,0.276c-0.925,0 -1.785,-0.281 -2.5,-0.76v10.52c0.715,-0.479 1.575,-0.76 2.5,-0.76c1.824,0 3.387,1.09 4.093,2.651l11.462,-20.633l12.294,20.745c0.68,-1.623 2.282,-2.763 4.151,-2.763c0.925,0 1.785,0.281 2.5,0.76v-10.52c-0.715,0.479 -1.575,0.76 -2.5,0.76z" fill="url(#color-7)"></path><path d="M38.747,37.646c-1.614,-0.684 -2.747,-2.283 -2.747,-4.146c0,-0.529 0.108,-1.029 0.276,-1.5h-23.552c0.168,0.471 0.276,0.971 0.276,1.5c0,1.911 -1.196,3.533 -2.876,4.186l9.381,5.863c0,-0.017 -0.005,-0.032 -0.005,-0.049c0,-1.457 0.703,-2.738 1.777,-3.56l-6.304,-3.94h18.682l-6.834,4.02c1.016,0.825 1.679,2.069 1.679,3.48c0,0.063 -0.016,0.122 -0.019,0.184z" fill="url(#color-8)"></path></g></g></svg>