<svg xmlns="http://www.w3.org/2000/svg" xmlns:xlink="http://www.w3.org/1999/xlink" viewBox="0,0,256,256" width="240px" height="240px" fill-rule="nonzero"><defs><linearGradient x1="-6.92" y1="41.852" x2="71.637" y2="-3.503" gradientUnits="userSpaceOnUse" id="color-1"><stop offset="0" stop-color="#ffffff" stop-opacity="0"></stop><stop offset="1" stop-color="#c1c0be"></stop></linearGradient><linearGradient x1="18.739" y1="44.711" x2="43.916" y2="19.534" gradientUnits="userSpaceOnUse" id="color-2"><stop offset="0" stop-color="#ffffff" stop-opacity="0"></stop><stop offset="1" stop-color="#c1c0be"></stop></linearGradient><linearGradient x1="8.778" y1="43.664" x2="32.757" y2="19.686" gradientUnits="userSpaceOnUse" id="color-3"><stop offset="0" stop-color="#ffffff" stop-opacity="0"></stop><stop offset="1" stop-color="#c1c0be"></stop></linearGradient></defs><g fill="none" fill-rule="nonzero" stroke="none" stroke-width="1" stroke-linecap="butt" stroke-linejoin="miter" stroke-miterlimit="10" stroke-dasharray="" stroke-dashoffset="0" font-family="none" font-weight="none" font-size="none" text-anchor="none" style="mix-blend-mode: normal"><g transform="scale(5.33333,5.33333)"><path d="M12,6c-3.314,0 -6,2.686 -6,6v30h14h6h5h5c3.314,0 6,-2.686 6,-6v-30z" fill="url(#color-1)"></path><path d="M33.429,38h-4.571v-1.143c0,-1.262 1.023,-2.286 2.286,-2.286h2.286c0.618,0 1.139,-0.494 1.143,-1.113c0.007,-1.172 -0.395,-1.484 -2.022,-2.224c-1.475,-0.673 -3.708,-1.691 -3.692,-4.696c0.012,-2.516 2.106,-4.538 4.623,-4.538h3.375v1.143c0,1.262 -1.023,2.286 -2.286,2.286h-1.143c-0.631,0 -1.143,0.512 -1.143,1.143c0,0.637 0.145,0.84 1.686,1.544c1.543,0.703 4.15,1.892 4.023,5.569c-0.082,2.422 -2.142,4.315 -4.565,4.315z" fill="url(#color-2)"></path><path d="M19.714,38h-0.571v-3.429h0.571c1.576,0 2.857,-1.281 2.857,-2.857v-9.714h3.429v9.714c0,3.466 -2.82,6.286 -6.286,6.286z" fill="url(#color-3)"></path></g></g></svg>