<svg xmlns="http://www.w3.org/2000/svg" xmlns:xlink="http://www.w3.org/1999/xlink" viewBox="0,0,256,256" width="48px" height="48px" fill-rule="nonzero"><defs><linearGradient x1="-14.344" y1="24.669" x2="38.506" y2="24.669" gradientUnits="userSpaceOnUse" id="color-1"><stop offset="0" stop-color="#ffffff" stop-opacity="0"></stop><stop offset="1" stop-color="#c1c0be"></stop></linearGradient><linearGradient x1="5.282" y1="23.432" x2="58.129" y2="23.432" gradientUnits="userSpaceOnUse" id="color-2"><stop offset="0" stop-color="#ffffff" stop-opacity="0"></stop><stop offset="1" stop-color="#c1c0be"></stop></linearGradient></defs><g fill="none" fill-rule="nonzero" stroke="none" stroke-width="1" stroke-linecap="butt" stroke-linejoin="miter" stroke-miterlimit="10" stroke-dasharray="" stroke-dashoffset="0" font-family="none" font-weight="none" font-size="none" text-anchor="none" style="mix-blend-mode: normal"><g transform="scale(5.33333,5.33333)"><path d="M16.163,24l7.838,-7.838c-2.041,-2.25 -3.251,-5.13 -3.429,-8.162c0,-3.28 1.129,-5.426 2.091,-6.663l-21.046,21.047c-0.892,0.893 -0.892,2.339 0,3.232l22.384,22.384c0,0 3.429,-2.286 3.429,-8c-0.177,-3.032 -1.387,-5.913 -3.429,-8.162z" fill="url(#color-1)"></path><path d="M46.383,22.384l-22.382,-22.384c0,0 -3.429,2.286 -3.429,8c0.177,3.032 1.387,5.913 3.429,8.162l7.836,7.838l-7.837,7.838v0.047c2.016,2.243 3.213,5.103 3.39,8.116c0,3.468 -1.261,5.667 -2.254,6.865l21.247,-21.249c0.893,-0.894 0.893,-2.34 0,-3.233z" fill="url(#color-2)"></path></g></g></svg>