<svg xmlns="http://www.w3.org/2000/svg" xmlns:xlink="http://www.w3.org/1999/xlink" viewBox="0,0,256,256" width="240px" height="240px" fill-rule="nonzero"><defs><linearGradient x1="13.908" y1="13.908" x2="28.119" y2="28.119" gradientUnits="userSpaceOnUse" id="color-1"><stop offset="0" stop-color="#c1c0be" stop-opacity="0"></stop><stop offset="1" stop-color="#c1c0be"></stop></linearGradient><linearGradient x1="-9.419" y1="-9.419" x2="72.908" y2="72.908" gradientUnits="userSpaceOnUse" id="color-2"><stop offset="0" stop-color="#c1c0be" stop-opacity="0"></stop><stop offset="1" stop-color="#c1c0be"></stop></linearGradient><linearGradient x1="-16.967" y1="-16.967" x2="83.954" y2="83.954" gradientUnits="userSpaceOnUse" id="color-3"><stop offset="0" stop-color="#c1c0be" stop-opacity="0"></stop><stop offset="1" stop-color="#c1c0be"></stop></linearGradient><linearGradient x1="0.865" y1="0.865" x2="57.858" y2="57.858" gradientUnits="userSpaceOnUse" id="color-4"><stop offset="0" stop-color="#c1c0be" stop-opacity="0"></stop><stop offset="1" stop-color="#c1c0be"></stop></linearGradient></defs><g fill="none" fill-rule="nonzero" stroke="none" stroke-width="1" stroke-linecap="butt" stroke-linejoin="miter" stroke-miterlimit="10" stroke-dasharray="" stroke-dashoffset="0" font-family="none" font-weight="none" font-size="none" text-anchor="none" style="mix-blend-mode: normal"><g transform="scale(5.33333,5.33333)"><circle cx="24" cy="24" r="4" fill="url(#color-1)"></circle><path d="M24,35c-12.542,0 -22,-4.729 -22,-11c0,-6.271 9.458,-11 22,-11c12.542,0 22,4.729 22,11c0,6.271 -9.458,11 -22,11zM24,17c-10.302,0 -18,3.696 -18,7c0,3.304 7.698,7 18,7c10.302,0 18,-3.696 18,-7c0,-3.304 -7.698,-7 -18,-7z" fill="url(#color-2)"></path><path d="M31.722,43.902c-2.204,0 -4.711,-0.962 -7.331,-2.85c-3.586,-2.583 -7.107,-6.686 -9.917,-11.552c-2.81,-4.866 -4.602,-9.967 -5.046,-14.364c-0.501,-4.951 0.768,-8.57 3.572,-10.188c2.805,-1.621 6.573,-0.908 10.609,2c3.586,2.583 7.107,6.686 9.917,11.552c2.81,4.866 4.602,9.967 5.046,14.364c0.501,4.951 -0.769,8.569 -3.572,10.188v0c-0.984,0.569 -2.087,0.85 -3.278,0.85zM16.292,8.103c-0.496,0 -0.933,0.102 -1.292,0.309c-1.32,0.762 -1.916,3.125 -1.593,6.322c0.389,3.846 1.998,8.38 4.531,12.767c2.532,4.387 5.654,8.047 8.79,10.307c2.606,1.878 4.953,2.543 6.271,1.782v0c1.32,-0.762 1.916,-3.125 1.593,-6.322c-0.389,-3.846 -1.998,-8.38 -4.531,-12.767c-2.532,-4.387 -5.654,-8.047 -8.79,-10.307c-1.896,-1.367 -3.654,-2.091 -4.979,-2.091z" fill="url(#color-3)"></path><path d="M16.278,43.902c-1.191,0 -2.294,-0.281 -3.278,-0.85c-2.804,-1.619 -4.073,-5.237 -3.572,-10.188c0.444,-4.397 2.236,-9.498 5.046,-14.364c2.81,-4.866 6.331,-8.969 9.917,-11.552c4.036,-2.908 7.803,-3.621 10.609,-2c2.804,1.619 4.073,5.237 3.572,10.188c-0.444,4.397 -2.236,9.498 -5.046,14.364c-2.81,4.866 -6.331,8.969 -9.917,11.552c-2.62,1.888 -5.127,2.85 -7.331,2.85zM31.708,8.103c-1.325,0 -3.083,0.725 -4.979,2.091c-3.136,2.26 -6.258,5.92 -8.79,10.307c-2.533,4.387 -4.143,8.921 -4.531,12.767c-0.323,3.196 0.272,5.56 1.593,6.322v0c1.319,0.763 3.665,0.097 6.271,-1.782c3.136,-2.26 6.258,-5.92 8.79,-10.307c2.533,-4.387 4.143,-8.921 4.531,-12.767c0.323,-3.196 -0.272,-5.56 -1.593,-6.322c-0.359,-0.208 -0.796,-0.309 -1.292,-0.309z" fill="url(#color-4)"></path></g></g></svg>