<svg xmlns="http://www.w3.org/2000/svg"  viewBox="0 0 48 48" width="48px" height="48px" baseProfile="basic"><linearGradient id="vBhEtANmdXF6kloAZes-5a" x1="23" x2="23" y1="5.534" y2="22.983" gradientUnits="userSpaceOnUse"><stop offset="0" stop-color="#262626" stop-opacity="0"/><stop offset="1" stop-color="#262626" stop-opacity=".8"/></linearGradient><circle cx="23" cy="17" r="4" fill="url(#vBhEtANmdXF6kloAZes-5a)"/><linearGradient id="vBhEtANmdXF6kloAZes-5b" x1="17" x2="17" y1="17.534" y2="34.983" gradientUnits="userSpaceOnUse"><stop offset="0" stop-color="#262626" stop-opacity="0"/><stop offset="1" stop-color="#262626" stop-opacity=".8"/></linearGradient><circle cx="17" cy="29" r="4" fill="url(#vBhEtANmdXF6kloAZes-5b)"/><linearGradient id="vBhEtANmdXF6kloAZes-5c" x1="29" x2="29" y1="17.534" y2="34.983" gradientUnits="userSpaceOnUse"><stop offset="0" stop-color="#262626" stop-opacity="0"/><stop offset="1" stop-color="#262626" stop-opacity=".8"/></linearGradient><circle cx="29" cy="29" r="4" fill="url(#vBhEtANmdXF6kloAZes-5c)"/><linearGradient id="vBhEtANmdXF6kloAZes-5d" x1="2.207" x2="47.676" y1="1.4" y2="46.87" gradientUnits="userSpaceOnUse"><stop offset="0" stop-color="#262626" stop-opacity="0"/><stop offset="1" stop-color="#262626" stop-opacity=".8"/></linearGradient><path fill="url(#vBhEtANmdXF6kloAZes-5d)" d="M45.028,31.952c-0.674-3.667-2.709-7.352-5.732-10.374c-3.208-3.208-8.057-5.327-12.518-5.84	C26.911,16.137,27,16.556,27,17c0,1.04-0.407,1.979-1.058,2.691c3.506,0.322,7.744,1.934,10.526,4.716	c4.791,4.791,6.249,11.43,3.183,14.496c-2.827,2.825-8.519,1.879-13.188-2.006c-0.429,0.509-0.781,0.893-0.978,1.089	c-0.616,0.616-1.259,1.17-1.911,1.694c3.663,3.172,7.887,4.852,11.666,4.852c2.8,0,5.351-0.913,7.238-2.801	C44.847,39.363,45.752,35.891,45.028,31.952z"/><linearGradient id="vBhEtANmdXF6kloAZes-5e" x1="15.884" x2="15.884" y1="-5.97" y2="50.393" gradientUnits="userSpaceOnUse"><stop offset="0" stop-color="#262626" stop-opacity="0"/><stop offset="1" stop-color="#262626" stop-opacity=".8"/></linearGradient><path fill="url(#vBhEtANmdXF6kloAZes-5e)" d="M29,33c-1.4,0-2.627-0.721-3.342-1.81c-0.935,1.563-2.251,3.218-3.001,3.967	c-4.791,4.789-11.433,6.246-14.496,3.182c-3.065-3.066-1.608-9.704,3.182-14.496c0.302-0.301,0.615-0.589,0.935-0.868	C12.101,21.837,12,20.674,12,19.5c0-0.458,0.023-0.907,0.048-1.355c-1.267,0.832-2.454,1.79-3.534,2.869	c-6.542,6.543-7.939,15.395-3.182,20.152c1.901,1.901,4.456,2.819,7.256,2.819c4.207,0,8.968-2.073,12.896-6.001	c0.571-0.571,2.432-2.69,3.768-5.011C29.168,32.98,29.087,33,29,33z"/><linearGradient id="vBhEtANmdXF6kloAZes-5f" x1="23.99" x2="23.99" y1="-19.651" y2="33.29" gradientUnits="userSpaceOnUse"><stop offset="0" stop-color="#262626" stop-opacity="0"/><stop offset="1" stop-color="#262626" stop-opacity=".8"/></linearGradient><path fill="url(#vBhEtANmdXF6kloAZes-5f)" d="M24,3c-6.729,0-12,7.248-12,16.5c0,2.723,0.494,5.399,1.407,7.772	c0.625-1.295,1.918-2.197,3.438-2.257C16.295,23.309,16,21.426,16,19.5C16,12.725,19.663,7,24,7c3.823,0,7.06,4.294,7.821,9.959	c1.448,0.532,2.857,1.206,4.159,2.018C35.779,9.998,30.56,3,24,3z"/></svg>