<svg xmlns="http://www.w3.org/2000/svg" xmlns:xlink="http://www.w3.org/1999/xlink" viewBox="0,0,256,256" width="48px" height="48px" fill-rule="nonzero"><defs><linearGradient x1="23" y1="5.534" x2="23" y2="22.983" gradientUnits="userSpaceOnUse" id="color-1"><stop offset="0" stop-color="#ffffff"></stop><stop offset="1" stop-color="#c1c0be"></stop></linearGradient><linearGradient x1="17" y1="17.534" x2="17" y2="34.983" gradientUnits="userSpaceOnUse" id="color-2"><stop offset="0" stop-color="#ffffff"></stop><stop offset="1" stop-color="#c1c0be"></stop></linearGradient><linearGradient x1="29" y1="17.534" x2="29" y2="34.983" gradientUnits="userSpaceOnUse" id="color-3"><stop offset="0" stop-color="#ffffff"></stop><stop offset="1" stop-color="#c1c0be"></stop></linearGradient><linearGradient x1="2.207" y1="1.4" x2="47.676" y2="46.87" gradientUnits="userSpaceOnUse" id="color-4"><stop offset="0" stop-color="#ffffff"></stop><stop offset="1" stop-color="#c1c0be"></stop></linearGradient><linearGradient x1="15.884" y1="-5.97" x2="15.884" y2="50.393" gradientUnits="userSpaceOnUse" id="color-5"><stop offset="0" stop-color="#ffffff"></stop><stop offset="1" stop-color="#c1c0be"></stop></linearGradient><linearGradient x1="23.99" y1="-19.651" x2="23.99" y2="33.29" gradientUnits="userSpaceOnUse" id="color-6"><stop offset="0" stop-color="#ffffff"></stop><stop offset="1" stop-color="#c1c0be"></stop></linearGradient></defs><g fill="none" fill-rule="nonzero" stroke="none" stroke-width="1" stroke-linecap="butt" stroke-linejoin="miter" stroke-miterlimit="10" stroke-dasharray="" stroke-dashoffset="0" font-family="none" font-weight="none" font-size="none" text-anchor="none" style="mix-blend-mode: normal"><g transform="scale(5.33333,5.33333)"><circle cx="23" cy="17" r="4" fill="url(#color-1)"></circle><circle cx="17" cy="29" r="4" fill="url(#color-2)"></circle><circle cx="29" cy="29" r="4" fill="url(#color-3)"></circle><path d="M45.028,31.952c-0.674,-3.667 -2.709,-7.352 -5.732,-10.374c-3.208,-3.208 -8.057,-5.327 -12.518,-5.84c0.133,0.399 0.222,0.818 0.222,1.262c0,1.04 -0.407,1.979 -1.058,2.691c3.506,0.322 7.744,1.934 10.526,4.716c4.791,4.791 6.249,11.43 3.183,14.496c-2.827,2.825 -8.519,1.879 -13.188,-2.006c-0.429,0.509 -0.781,0.893 -0.978,1.089c-0.616,0.616 -1.259,1.17 -1.911,1.694c3.663,3.172 7.887,4.852 11.666,4.852c2.8,0 5.351,-0.913 7.238,-2.801c2.369,-2.368 3.274,-5.84 2.55,-9.779z" fill="url(#color-4)"></path><path d="M29,33c-1.4,0 -2.627,-0.721 -3.342,-1.81c-0.935,1.563 -2.251,3.218 -3.001,3.967c-4.791,4.789 -11.433,6.246 -14.496,3.182c-3.065,-3.066 -1.608,-9.704 3.182,-14.496c0.302,-0.301 0.615,-0.589 0.935,-0.868c-0.177,-1.138 -0.278,-2.301 -0.278,-3.475c0,-0.458 0.023,-0.907 0.048,-1.355c-1.267,0.832 -2.454,1.79 -3.534,2.869c-6.542,6.543 -7.939,15.395 -3.182,20.152c1.901,1.901 4.456,2.819 7.256,2.819c4.207,0 8.968,-2.073 12.896,-6.001c0.571,-0.571 2.432,-2.69 3.768,-5.011c-0.084,0.007 -0.165,0.027 -0.252,0.027z" fill="url(#color-5)"></path><path d="M24,3c-6.729,0 -12,7.248 -12,16.5c0,2.723 0.494,5.399 1.407,7.772c0.625,-1.295 1.918,-2.197 3.438,-2.257c-0.55,-1.706 -0.845,-3.589 -0.845,-5.515c0,-6.775 3.663,-12.5 8,-12.5c3.823,0 7.06,4.294 7.821,9.959c1.448,0.532 2.857,1.206 4.159,2.018c-0.201,-8.979 -5.42,-15.977 -11.98,-15.977z" fill="url(#color-6)"></path></g></g></svg>